<?xml version="1.0" standalone="no"?>
<!DOCTYPE svg PUBLIC "-//W3C//DTD SVG 20010904//EN"
 "http://www.w3.org/TR/2001/REC-SVG-20010904/DTD/svg10.dtd">
<svg version="1.0" xmlns="http://www.w3.org/2000/svg"
 width="960.000000pt" height="540.000000pt" viewBox="0 0 960.000000 540.000000"
 preserveAspectRatio="xMidYMid meet">

<g transform="translate(0.000000,540.000000) scale(0.100000,-0.100000)"
fill="#000000" stroke="none">
<path d="M4707 4413 c-4 -3 -7 -15 -7 -25 0 -47 -156 -171 -265 -211 -248 -91
-497 -132 -525 -86 -11 17 -99 -40 -146 -95 -69 -80 -30 -120 116 -118 176 2
456 81 698 197 133 64 134 65 129 94 -6 29 -6 29 33 24 33 -5 46 0 98 37 66
46 112 103 112 139 0 33 -53 51 -153 51 -46 0 -87 -3 -90 -7z m-617 -367 c0
-2 -9 -6 -20 -9 -11 -3 -18 -1 -14 4 5 9 34 13 34 5z m-70 -116 c-24 -19 -40
-25 -40 -15 0 5 51 34 60 34 3 0 -6 -8 -20 -19z"/>
<path d="M5361 4126 c-122 -197 -678 -488 -1177 -615 -90 -23 -262 -44 -315
-39 -31 3 -34 6 -31 31 3 23 0 27 -21 27 -16 0 -35 -12 -50 -30 -14 -17 -38
-35 -52 -40 -33 -13 -96 -13 -129 0 -23 9 -29 5 -66 -47 -44 -62 -58 -112 -41
-149 15 -33 88 -65 165 -71 75 -7 112 -24 46 -22 -25 1 -53 1 -62 0 -29 -2
-42 -74 -42 -243 -1 -177 -4 -183 -68 -131 l-33 27 24 -27 c13 -14 44 -34 68
-43 33 -13 42 -21 37 -33 -3 -9 -9 -38 -12 -64 -4 -44 -2 -51 29 -83 21 -22
53 -40 89 -51 51 -16 101 -42 55 -30 -11 3 -45 7 -75 9 -44 2 -60 8 -82 30
-16 15 -28 25 -28 21 0 -16 135 -205 190 -266 72 -78 122 -110 202 -127 52
-12 57 -15 62 -45 8 -41 35 -66 121 -108 160 -79 358 -124 495 -112 47 4 128
7 180 6 204 -4 493 109 625 243 28 28 66 62 85 76 114 79 202 182 284 332 54
101 68 136 32 85 -14 -21 -26 -42 -26 -48 0 -6 -4 -7 -10 -4 -5 3 -10 -3 -10
-13 0 -21 -23 -46 -33 -35 -4 3 -13 0 -22 -7 -24 -20 -17 -2 13 31 15 17 26
36 24 41 -1 5 11 27 28 48 37 47 60 100 60 139 0 46 -17 46 -65 2 -45 -41 -69
-55 -44 -25 8 9 15 29 16 43 1 14 7 46 12 71 8 40 8 194 0 291 l-4 37 -35 -30
c-19 -16 -76 -63 -127 -103 -81 -65 -97 -84 -136 -157 -75 -139 -139 -379
-105 -390 13 -5 -161 -90 -291 -143 -288 -117 -697 -225 -853 -225 -32 0 -38
3 -39 23 -1 16 -2 18 -6 5 -7 -28 -21 -21 -28 14 -4 17 -18 43 -31 57 -13 14
-25 37 -26 51 -2 41 -5 54 -11 70 -4 8 -8 36 -10 62 -4 46 -4 46 32 53 20 4
47 13 61 21 14 7 90 30 170 49 305 76 656 206 927 345 264 136 387 217 500
329 142 142 161 260 52 317 -30 15 -30 15 -79 -39 -81 -89 -348 -271 -537
-366 -46 -23 -83 -43 -83 -46 0 -3 23 6 51 21 28 14 52 24 54 22 5 -4 -28
-120 -39 -137 -11 -17 -85 -50 -113 -51 -17 0 -24 9 -32 38 -16 55 -15 57 29
77 22 10 38 20 36 22 -2 2 -32 -10 -66 -27 -217 -109 -617 -243 -897 -300
-111 -22 -161 -25 -98 -6 29 8 40 17 40 31 0 11 5 23 10 27 6 5 5 8 -2 8 -8 0
-13 15 -13 40 0 22 -5 40 -11 40 -5 0 -8 4 -5 9 8 13 -28 77 -65 114 -58 58
-108 126 -93 128 27 2 -39 18 -81 20 -27 1 -39 3 -25 5 14 2 59 9 100 15 150
21 624 151 654 179 4 4 -1 11 -13 15 -19 6 -26 17 -22 38 1 5 -3 6 -8 3 -10
-6 -80 24 -81 35 0 5 118 49 134 49 5 0 3 -7 -4 -15 -13 -15 -12 -16 59 -72
11 -8 12 -12 4 -13 -7 0 -13 -4 -13 -10 0 -10 45 4 133 43 31 15 60 26 62 26
15 2 346 173 342 177 -3 3 -15 0 -27 -6 -15 -8 -20 -8 -16 -1 4 6 2 20 -4 31
-14 25 7 27 51 5 28 -15 31 -14 77 16 102 70 201 150 240 194 43 48 82 119 82
147 0 30 -49 76 -98 91 -95 30 -98 30 -121 -7z m-388 -476 c11 -10 -3 -60 -17
-60 -26 1 -73 60 -59 74 8 8 64 -2 76 -14z m-737 -267 c-22 -43 -79 -100 -84
-85 -4 12 76 111 91 112 4 0 1 -12 -7 -27z m-79 -18 c-35 -40 -37 -41 -37 -20
0 19 35 55 54 55 9 0 3 -13 -17 -35z m-56 -107 c8 -15 5 -18 -20 -18 -32 0
-45 20 -35 52 6 19 6 19 26 1 11 -10 24 -26 29 -35z m-201 -38 c0 -5 -4 -10
-10 -10 -5 0 -10 5 -10 10 0 6 5 10 10 10 6 0 10 -4 10 -10z m1500 -9 c0 -14
-48 -42 -55 -32 -3 5 5 17 17 25 25 18 38 20 38 7z m240 -706 c0 -4 -70 -45
-77 -45 -4 0 6 13 21 29 16 16 35 27 42 24 8 -3 14 -6 14 -8z m-54 -63 c-8
-13 -194 -136 -251 -166 -27 -14 -57 -30 -65 -35 -8 -5 -26 -14 -40 -20 -24
-10 -24 -10 5 -6 24 4 26 4 10 -4 -11 -5 -28 -10 -38 -10 -11 -1 -26 -10 -35
-22 -11 -12 -30 -21 -50 -21 -17 -1 -32 -5 -32 -10 0 -4 -12 -6 -27 -3 -16 3
-22 2 -14 -1 17 -8 -82 -44 -121 -44 -15 0 -28 -5 -28 -11 0 -6 -6 -9 -14 -6
-18 7 -96 -13 -96 -24 0 -5 -7 -6 -15 -3 -8 3 -47 -1 -87 -9 -101 -22 -210
-37 -255 -36 -25 1 -4 7 61 19 111 21 381 101 538 159 198 73 438 184 523 240
35 23 38 24 31 13z m-116 -287 c-7 -9 -15 -13 -19 -10 -3 3 1 10 9 15 21 14
24 12 10 -5z m-1333 -102 c20 -8 33 -17 30 -20 -10 -10 -80 32 -96 58 l-15 24
24 -24 c12 -13 38 -30 57 -38z m392 23 c-12 -10 -60 -16 -54 -6 3 5 18 10 32
10 15 0 24 -2 22 -4z m791 -21 c0 -18 -233 -108 -310 -119 -32 -5 -16 3 55 27
55 19 132 48 170 65 70 31 85 36 85 27z"/>
<path d="M4930 3635 c0 -8 4 -15 10 -15 5 0 7 7 4 15 -4 8 -8 15 -10 15 -2 0
-4 -7 -4 -15z"/>
<path d="M7461 3796 c-43 -15 -81 -60 -80 -94 0 -25 1 -25 12 8 11 32 15 35
45 32 18 -2 70 -14 116 -26 l83 -22 12 32 c9 24 22 37 46 46 19 6 35 15 35 19
0 20 -215 25 -269 5z"/>
<path d="M1735 3695 c-108 -24 -251 -83 -310 -129 -32 -24 -14 -19 71 23 113
55 336 119 319 92 -3 -6 -13 -11 -22 -11 -18 0 -231 -89 -237 -99 -3 -4 25 3
62 16 55 19 86 23 172 22 58 0 164 2 235 6 108 6 133 4 150 -8 18 -14 6 -15
-123 -10 -81 4 -142 2 -142 -3 0 -5 18 -19 40 -32 22 -12 50 -40 62 -61 12
-21 34 -43 48 -49 23 -9 23 -10 4 -11 -19 -1 -21 -6 -17 -44 7 -58 -21 -160
-59 -219 -100 -157 -357 -279 -525 -251 -62 11 -95 24 -145 57 l-27 17 -9 -43
c-8 -37 -10 -39 -11 -13 0 17 3 36 8 44 6 9 0 30 -16 62 -17 32 -26 65 -26 99
-1 51 -1 51 -19 28 -15 -20 -84 -156 -116 -228 -10 -24 -11 -24 -11 10 -1 37
57 151 116 227 16 21 46 72 66 114 28 58 54 92 104 140 85 80 42 54 -104 -64
-109 -87 -114 -93 -158 -181 -41 -83 -45 -98 -45 -163 0 -172 106 -301 285
-349 28 -8 64 -14 82 -14 27 0 32 4 38 29 3 16 21 45 38 65 31 35 33 36 70 26
41 -12 46 -35 7 -35 -14 0 -29 -10 -38 -25 -12 -22 -12 -23 1 -7 8 9 19 17 25
17 22 0 21 -18 -4 -45 l-26 -28 24 6 c13 4 31 7 41 7 10 0 16 4 13 8 -3 5 13
30 35 58 21 27 42 56 45 65 3 10 31 26 62 38 140 51 240 152 288 290 9 28 19
37 44 42 28 6 59 32 60 51 0 4 -24 8 -52 10 l-53 3 2 63 c2 44 8 68 20 81 36
36 52 33 102 -17 49 -49 81 -118 81 -175 0 -29 -48 -125 -73 -145 -13 -11 -39
-2 -39 14 0 5 -4 8 -10 6 -5 -1 -7 7 -3 19 5 16 4 19 -6 14 -7 -5 -5 2 4 16 9
13 17 27 17 31 0 12 -38 4 -53 -11 -9 -10 -8 -11 8 -6 19 6 19 6 1 -5 -14 -10
-20 -9 -28 1 -5 8 -8 9 -6 2 6 -21 99 -113 109 -108 22 14 94 152 111 213 61
223 -40 398 -267 456 -71 19 -207 19 -290 1z m-388 -759 c0 -8 -6 -12 -15 -9
-11 5 -11 7 0 14 7 5 13 9 14 9 0 0 1 -6 1 -14z m124 -52 c20 -18 46 -35 58
-39 28 -8 23 -21 -21 -62 -21 -19 -37 -38 -36 -41 1 -4 -2 -20 -7 -35 -6 -25
-11 -28 -34 -22 -31 7 -115 91 -106 105 3 6 2 10 -4 10 -6 0 -8 7 -4 16 5 13
8 13 15 2 6 -9 7 -6 3 10 -5 17 1 30 24 54 17 17 29 34 26 36 -2 3 -14 -6 -25
-19 -12 -13 -19 -17 -16 -9 3 8 9 22 12 31 8 24 68 4 115 -37z m-172 -28 c7
-26 7 -36 0 -29 -5 5 -12 27 -14 49 -6 44 -1 37 14 -20z m296 -46 c3 -5 -3
-10 -14 -10 -12 0 -21 5 -21 10 0 6 6 10 14 10 8 0 18 -4 21 -10z"/>
<path d="M1454 2742 c4 -7 3 -12 -2 -12 -6 0 -13 -7 -16 -16 -10 -27 0 -27 18
0 11 18 13 27 4 32 -7 4 -8 3 -4 -4z"/>
<path d="M2530 3692 c42 -29 120 -104 137 -133 12 -19 30 -31 61 -39 84 -21
116 -44 150 -108 18 -33 32 -63 32 -67 0 -6 -18 -2 -60 13 -8 3 9 -20 38 -51
30 -32 52 -65 52 -78 0 -18 -6 -14 -31 22 -34 47 -159 179 -170 179 -4 0 -4
-15 1 -32 28 -109 19 -246 -24 -382 -27 -86 -19 -96 9 -12 12 36 25 56 35 56
13 0 13 -1 0 -10 -10 -6 -11 -10 -2 -10 7 0 13 -15 14 -37 l1 -38 7 40 c6 30
7 24 4 -25 -8 -130 -68 -286 -160 -416 -54 -75 -199 -217 -280 -271 -116 -79
-246 -141 -374 -179 -108 -32 -142 -37 -257 -42 -79 -2 -159 0 -200 8 -92 16
-205 65 -268 115 -28 23 -74 55 -101 70 -66 37 -103 62 -142 99 l-33 31 6 -30
c12 -56 58 -190 78 -230 l20 -40 -21 18 c-11 10 -28 47 -38 83 -21 71 -34 82
-34 29 0 -19 -4 -35 -8 -35 -4 0 -24 25 -45 56 -40 62 -46 106 -27 192 9 36 7
49 -11 83 -11 23 -27 73 -35 112 -9 40 -17 73 -19 75 -8 9 -17 -154 -10 -205
31 -256 184 -434 445 -519 80 -26 96 -28 270 -28 254 -1 387 29 620 140 495
237 827 689 797 1087 -10 123 -35 195 -104 294 -55 79 -134 143 -238 193 -83
41 -131 53 -85 22z m247 -589 c-3 -10 -5 -4 -5 12 0 17 2 24 5 18 2 -7 2 -21
0 -30z"/>
<path d="M7518 3672 c-144 -3 -143 -3 -107 -75 33 -63 100 -147 161 -199 260
-222 595 -367 823 -356 102 5 110 10 89 51 -28 53 -121 186 -127 181 -11 -11
-144 -4 -202 11 -207 53 -466 244 -504 369 -6 20 -12 21 -133 18z"/>
<path d="M6886 3649 c-135 -50 -192 -139 -166 -263 46 -220 309 -501 687 -733
379 -233 878 -380 1128 -333 51 10 69 17 72 31 6 21 19 25 25 9 6 -18 85 42
107 80 11 20 23 54 27 77 6 41 -12 153 -25 153 -4 0 -18 -11 -31 -25 -13 -14
-48 -35 -79 -47 -82 -32 -276 -32 -421 1 -341 75 -746 289 -1000 528 -199 187
-312 388 -281 499 6 21 9 39 8 39 -1 1 -24 -6 -51 -16z m-136 -263 c0 -3 -4
-8 -10 -11 -5 -3 -10 -1 -10 4 0 6 5 11 10 11 6 0 10 -2 10 -4z"/>
<path d="M1204 3458 l-19 -23 23 19 c12 11 22 21 22 23 0 8 -8 2 -26 -19z"/>
<path d="M8422 3390 c9 -26 8 -39 -5 -66 -9 -19 -21 -34 -27 -34 -6 0 6 -14
27 -32 21 -17 64 -57 96 -87 l57 -55 0 49 c0 62 -26 116 -92 191 -60 70 -71
76 -56 34z"/>
<path d="M1129 3383 c-13 -16 -12 -17 4 -4 9 7 17 15 17 17 0 8 -8 3 -21 -13z"/>
<path d="M3025 3274 c-22 -23 -25 -37 -25 -96 0 -44 4 -67 10 -63 6 3 10 -3
10 -14 0 -11 5 -23 10 -26 12 -7 76 -130 98 -185 41 -105 64 -212 63 -290 0
-46 -74 -204 -145 -310 -195 -291 -537 -540 -906 -658 -180 -57 -246 -67 -466
-67 l-201 0 16 -21 c9 -12 20 -19 25 -16 5 3 6 0 2 -6 -8 -14 12 -55 23 -47 5
2 14 -2 20 -9 11 -13 4 -13 -46 -1 -32 8 -70 18 -84 23 -28 11 -71 58 -93 101
-9 17 -31 32 -64 43 -27 10 -84 40 -126 68 -42 27 -76 45 -76 39 0 -6 42 -52
93 -102 71 -72 109 -101 170 -130 456 -223 1168 -41 1597 410 160 167 228 263
310 436 71 150 85 208 84 362 -1 139 -1 139 -84 365 -32 87 -92 204 -111 216
-7 4 -6 -2 1 -16 l12 -23 -35 21 c-44 28 -53 28 -82 -4z m260 -574 c29 -56 29
-60 14 -148 l-12 -65 -19 24 -19 24 16 -32 c24 -50 3 -39 -24 12 -20 38 -23
54 -18 102 6 58 24 133 32 133 3 0 16 -22 30 -50z m-68 -262 c-3 -7 -5 -2 -5
12 0 14 2 19 5 13 2 -7 2 -19 0 -25z"/>
<path d="M6472 3248 c-30 -15 -58 -26 -62 -23 -10 6 -20 -30 -20 -74 0 -21
-10 -46 -29 -70 -36 -45 -61 -118 -61 -176 0 -136 106 -323 284 -500 292 -291
720 -542 1126 -660 199 -57 278 -69 460 -69 147 0 171 2 220 22 73 29 146 101
164 161 7 25 12 47 11 49 -2 2 -25 -4 -51 -13 -159 -54 -459 -25 -751 71 -435
144 -925 456 -1135 722 -52 66 -89 128 -85 144 3 10 0 18 -6 18 -7 0 -7 4 2 9
9 6 12 19 8 37 -3 16 -1 49 4 74 6 25 11 52 13 60 4 20 14 43 44 110 24 54 34
110 20 110 -5 0 -8 7 -8 15 0 25 -87 15 -148 -17z m-89 -539 c-4 -16 -8 -17
-14 -7 -13 19 -11 28 5 28 9 0 12 -7 9 -21z m1882 -1020 c-4 -5 -13 -9 -22 -9
-13 0 -13 3 -3 15 13 15 35 11 25 -6z"/>
<path d="M2119 2987 c-52 -32 -66 -44 -117 -112 l-47 -60 60 47 c65 50 165
149 150 147 -6 0 -26 -11 -46 -22z"/>
<path d="M3315 2953 c37 -97 47 -305 21 -429 -24 -115 -82 -250 -171 -402 -20
-34 -22 -41 -8 -33 15 7 18 5 18 -14 0 -13 -3 -21 -7 -19 -4 3 -1 -11 7 -31 9
-19 11 -35 7 -35 -5 0 -8 -24 -7 -54 2 -38 -1 -56 -11 -60 -7 -3 -18 -15 -24
-28 -11 -22 -10 -22 10 2 l21 25 -16 -33 c-9 -19 -20 -30 -27 -26 -6 4 -8 3
-4 -4 3 -5 0 -13 -6 -15 -10 -4 -10 -6 -1 -6 8 -1 6 -9 -7 -23 -10 -13 -26
-32 -35 -43 -14 -17 -16 -18 -11 -2 4 11 2 16 -5 12 -6 -4 -8 -13 -5 -21 7
-17 -10 -28 -18 -12 -3 7 -4 4 -3 -7 1 -12 -3 -19 -10 -18 -7 2 -12 -3 -10
-10 1 -6 -4 -11 -11 -9 -8 1 -11 -2 -8 -7 3 -5 -30 -37 -75 -72 -83 -66 -108
-81 -94 -59 5 9 4 11 -4 6 -6 -4 -9 -11 -6 -16 8 -13 -42 -40 -62 -34 -12 4
-14 3 -5 -3 16 -12 -131 -98 -149 -87 -7 4 -9 3 -6 -3 4 -6 -1 -13 -11 -16 -9
-3 -50 -19 -91 -36 -82 -35 -118 -41 -56 -11 22 11 31 18 20 14 -11 -3 -35 -8
-53 -11 -35 -6 -54 -23 -26 -23 33 0 5 -12 -38 -16 -26 -2 -38 0 -29 5 7 5 23
7 35 5 11 -2 15 -2 8 2 -6 3 -10 10 -6 15 7 13 -10 11 -23 -2 -6 -6 -29 -12
-51 -12 -22 -1 -38 -5 -36 -9 13 -20 -347 0 -466 26 -14 3 -38 9 -55 12 -16 4
-33 11 -36 16 -3 5 -27 10 -52 11 -25 1 -41 5 -35 8 6 4 -13 12 -41 19 -28 6
-51 16 -51 21 0 4 -7 5 -17 2 -12 -5 -14 -3 -8 7 6 10 3 12 -13 8 -12 -3 -22
-3 -24 1 -2 3 -32 19 -68 35 -36 17 -92 49 -125 73 l-60 44 55 -51 c104 -97
261 -191 410 -245 112 -40 340 -75 480 -73 l115 2 -125 6 c-98 5 -109 6 -50 8
177 5 367 44 505 105 279 123 487 309 640 572 32 55 64 105 71 111 16 13 50
106 81 219 35 126 43 340 18 486 -17 102 -60 259 -72 259 -3 0 -2 -8 2 -17z"/>
<path d="M6238 2870 c-32 -124 -51 -299 -42 -373 6 -50 38 -151 54 -172 11
-13 25 -132 15 -123 -4 4 -13 33 -20 65 l-13 58 -1 -49 c-1 -61 55 -233 110
-336 176 -326 497 -568 899 -677 52 -14 104 -18 255 -17 164 0 203 3 283 23
99 24 122 39 31 20 -70 -15 -261 -6 -364 17 -44 10 -99 18 -122 18 -23 1 -39
3 -37 6 3 2 -27 10 -66 16 -39 7 -79 16 -88 20 -9 4 -25 6 -34 5 -10 -1 -18 3
-18 9 0 6 -6 10 -12 8 -15 -2 -108 28 -147 48 -14 8 -34 14 -44 14 -11 0 -15
5 -11 11 4 8 -1 9 -16 4 -15 -5 -20 -4 -16 4 4 6 1 11 -8 11 -8 0 -22 7 -31
16 -9 9 -18 14 -22 11 -3 -3 -19 7 -37 23 -17 17 -35 30 -39 30 -13 0 -62 40
-62 51 0 5 -4 9 -10 10 -17 1 -75 71 -68 82 3 6 1 7 -5 3 -7 -4 -16 2 -21 16
-5 13 -16 30 -24 37 -9 7 -13 20 -10 28 4 11 2 14 -5 9 -8 -5 -12 0 -12 14 0
14 -4 19 -12 14 -8 -5 -7 0 2 11 8 10 10 16 4 12 -6 -3 -17 6 -25 21 -8 15
-35 53 -60 85 -43 53 -106 157 -96 157 3 0 27 -30 54 -67 187 -255 560 -524
878 -632 210 -71 413 -107 550 -98 80 5 195 39 195 58 0 6 5 7 10 4 6 -4 7
-12 3 -18 -4 -6 6 -2 21 11 16 12 37 22 48 22 42 0 134 42 208 95 76 56 242
213 249 238 2 6 -32 -23 -75 -65 -46 -47 -86 -78 -98 -78 -17 0 -18 -2 -6 -10
12 -8 11 -10 -6 -10 -14 0 -24 -8 -28 -22 -5 -19 -8 -21 -16 -8 -6 9 -10 10
-10 3 0 -6 -31 -27 -69 -46 -38 -19 -67 -38 -63 -42 4 -4 -4 -4 -18 0 -22 7
-23 6 -12 -8 11 -13 10 -15 -8 -10 -12 3 -28 -1 -38 -10 -40 -36 -225 -46
-384 -21 -33 5 -38 3 -52 -25 -20 -39 -48 -40 -175 -10 -75 18 -89 25 -88 41
1 17 8 18 92 13 49 -3 108 -8 130 -11 59 -7 41 1 -76 35 -306 88 -681 287
-911 485 -43 37 -78 64 -78 60 0 -3 25 -42 55 -85 33 -47 52 -84 49 -94 -3 -8
-9 -15 -13 -15 -11 0 -136 116 -164 153 l-26 35 19 37 c13 26 16 42 10 50 -5
7 -6 16 -2 20 4 5 2 5 -5 1 -6 -3 -14 -2 -18 4 -6 9 7 14 28 11 4 0 7 13 7 29
0 17 4 38 9 48 5 9 24 53 42 97 18 44 40 86 48 94 14 12 14 13 -1 8 -11 -4
-15 -2 -12 7 3 7 -15 35 -39 62 -138 155 -220 317 -236 464 l-6 65 -27 -105z"/>
<path d="M3462 2900 c0 -14 2 -19 5 -12 2 6 2 18 0 25 -3 6 -5 1 -5 -13z"/>
<path d="M3470 2856 c0 -8 4 -17 9 -20 5 -4 7 3 4 14 -6 23 -13 26 -13 6z"/>
<path d="M2585 2760 c-10 -11 -16 -22 -13 -25 3 -3 13 6 22 20 20 30 16 32 -9
5z"/>
<path d="M1730 2750 c0 -5 -9 -19 -20 -30 -24 -24 -14 -25 40 -4 34 14 37 18
25 30 -16 16 -45 19 -45 4z"/>
<path d="M2639 2737 c18 -23 7 -34 -16 -16 -15 11 -16 11 -5 -1 17 -20 15 -35
-3 -20 -13 11 -14 10 -9 -4 8 -21 17 -20 39 4 18 20 18 21 0 38 -18 16 -18 16
-6 -1z"/>
<path d="M1500 2690 c-6 -11 -8 -20 -6 -20 3 0 10 9 16 20 6 11 8 20 6 20 -3
0 -10 -9 -16 -20z"/>
<path d="M1525 2689 c-4 -6 -5 -12 -2 -15 2 -3 7 2 10 11 7 17 1 20 -8 4z"/>
<path d="M2407 2565 c-43 -41 -119 -101 -170 -134 -50 -33 -100 -67 -109 -76
-10 -8 -20 -15 -23 -14 -3 1 -19 -5 -36 -11 -21 -9 -26 -15 -18 -21 11 -6 10
-13 -1 -33 -21 -40 -37 -29 -31 21 1 8 -5 10 -14 7 -11 -5 -15 -22 -16 -68 -1
-51 -2 -56 -9 -32 -5 16 -7 33 -4 37 2 4 0 10 -6 14 -5 3 -12 -7 -16 -22 -10
-49 -12 -52 -33 -46 -12 3 -17 11 -14 19 3 8 9 11 14 8 5 -3 9 2 9 10 0 9 -5
16 -12 16 -6 0 -3 7 8 16 18 14 18 15 -6 8 -14 -4 -61 -17 -105 -29 -44 -12
-73 -24 -65 -27 8 -3 12 -8 8 -12 -3 -4 -15 -3 -26 3 -12 7 -35 7 -63 2 l-44
-9 48 -1 c26 -1 47 -4 47 -9 0 -4 21 -6 48 -5 36 2 41 0 22 -6 -15 -5 11 -7
69 -4 70 3 96 1 102 -9 7 -10 9 -10 9 0 0 8 16 12 46 12 25 0 43 -4 39 -9 -10
-18 55 7 138 53 84 46 179 110 236 158 l31 27 -19 48 c-10 26 -21 55 -25 64
-5 11 6 23 43 43 62 33 65 39 43 65 -17 20 -18 19 -95 -54z m96 42 c5 -15 -50
-53 -60 -43 -4 3 0 6 7 6 7 0 10 3 7 7 -7 7 21 43 33 43 5 0 10 -6 13 -13z
m-142 -110 c-6 -8 -7 -18 -3 -22 4 -5 1 -5 -6 -1 -10 6 -10 11 -1 22 6 8 14
14 16 14 3 0 0 -6 -6 -13z m-30 -41 c-6 -7 -8 -16 -4 -19 3 -4 1 -7 -5 -7 -6
0 -9 -11 -6 -24 2 -14 0 -27 -6 -31 -5 -3 -7 0 -4 8 3 8 -2 20 -11 27 -19 16
-20 40 -1 40 8 0 17 7 20 16 3 8 11 12 16 9 8 -5 8 -11 1 -19z m-66 -92 c-2
-10 -4 -23 -4 -27 -1 -5 -6 -5 -12 -1 -8 4 -7 9 2 15 10 6 11 9 2 9 -7 0 -13
12 -13 26 0 22 2 24 14 11 8 -8 13 -23 11 -33z m-47 14 c-4 -27 -28 -36 -28
-10 0 20 8 32 22 32 5 0 8 -10 6 -22z m-48 -52 c5 -5 16 -1 26 8 25 25 29 11
7 -26 -16 -28 -25 -33 -58 -33 -31 0 -41 4 -43 19 -2 10 2 23 8 30 10 8 11 6
7 -12 -5 -23 -5 -23 14 -6 10 9 20 29 20 43 1 21 2 22 6 6 3 -11 9 -24 13 -29z
m132 -38 c-9 -9 -12 -7 -12 12 0 19 3 21 12 12 9 -9 9 -15 0 -24z m-462 -84
c0 -8 -7 -14 -15 -14 -15 0 -21 21 -9 33 10 9 24 -2 24 -19z"/>
<path d="M5795 2559 c-4 -6 -5 -12 -2 -15 2 -3 7 2 10 11 7 17 1 20 -8 4z"/>
<path d="M801 2344 c0 -11 3 -14 6 -6 3 7 2 16 -1 19 -3 4 -6 -2 -5 -13z"/>
<path d="M1960 2280 c-9 -6 -10 -10 -3 -10 6 0 15 5 18 10 8 12 4 12 -15 0z"/>
<path d="M821 2224 c0 -11 3 -14 6 -6 3 7 2 16 -1 19 -3 4 -6 -2 -5 -13z"/>
<path d="M831 2184 c0 -11 3 -14 6 -6 3 7 2 16 -1 19 -3 4 -6 -2 -5 -13z"/>
<path d="M1578 2183 c7 -3 16 -2 19 1 4 3 -2 6 -13 5 -11 0 -14 -3 -6 -6z"/>
<path d="M851 2124 c-1 -15 30 -106 35 -101 2 2 -5 28 -15 58 -11 30 -20 49
-20 43z"/>
<path d="M8691 2043 c-10 -26 -10 -27 4 -9 8 11 15 23 15 28 0 15 -7 8 -19
-19z"/>
<path d="M890 2001 c0 -5 5 -13 10 -16 6 -3 10 -2 10 4 0 5 -4 13 -10 16 -5 3
-10 2 -10 -4z"/>
<path d="M910 1965 c0 -10 40 -75 47 -75 2 0 -6 17 -18 38 -28 45 -29 47 -29
37z"/>
<path d="M3252 1915 c-17 -37 -14 -45 4 -12 9 16 14 31 11 33 -2 2 -9 -7 -15
-21z"/>
<path d="M960 1876 c0 -2 8 -10 18 -17 15 -13 16 -12 3 4 -13 16 -21 21 -21
13z"/>
<path d="M3020 1595 c-135 -136 -324 -253 -519 -322 -53 -18 -80 -31 -61 -27
109 20 310 118 438 214 67 50 235 210 221 210 -2 0 -38 -34 -79 -75z"/>
<path d="M2378 1233 c7 -3 16 -2 19 1 4 3 -2 6 -13 5 -11 0 -14 -3 -6 -6z"/>
<path d="M2328 1223 c6 -2 18 -2 25 0 6 3 1 5 -13 5 -14 0 -19 -2 -12 -5z"/>
<path d="M2263 1213 c9 -2 23 -2 30 0 6 3 -1 5 -18 5 -16 0 -22 -2 -12 -5z"/>
</g>
</svg>
